<?xml version="1.0" encoding="UTF-8" standalone="no"?>
<!DOCTYPE svg PUBLIC "-//W3C//DTD SVG 1.1//EN" "http://www.w3.org/Graphics/SVG/1.1/DTD/svg11.dtd">
<svg width="100%" height="100%" viewBox="0 0 4077 622" version="1.1" xmlns="http://www.w3.org/2000/svg" xmlns:xlink="http://www.w3.org/1999/xlink" xml:space="preserve" xmlns:serif="http://www.serif.com/" style="fill-rule:evenodd;clip-rule:evenodd;stroke-linejoin:round;stroke-miterlimit:2;">
    <g transform="matrix(1,0,0,1,-17118.705208,-8387.344566)">
        <g transform="matrix(4.166667,0,0,4.166667,19815.015625,8885.944566)">
            <path d="M0,24.503C-3.5,21.251 -5.25,17.225 -5.25,12.435C-5.25,7.524 -3.5,3.408 0,0.092C3.502,-3.224 8.015,-4.883 13.542,-4.883C18.945,-4.883 23.399,-3.224 26.899,0.092C30.4,3.408 32.15,7.524 32.15,12.435C32.15,17.225 30.4,21.251 26.899,24.503C23.399,27.759 18.945,29.386 13.542,29.386C8.015,29.386 3.502,27.759 0,24.503" style="fill:white;fill-rule:nonzero;"/>
        </g>
        <g transform="matrix(4.166667,0,0,4.166667,19413.765625,7409.840399)">
            <path d="M178.563,382.176L147.058,382.176L147.058,279.371L178.563,279.371L178.563,382.176ZM149.361,263.803C145.861,260.55 144.11,256.526 144.11,251.735C144.11,246.825 145.861,242.739 149.361,239.483C152.861,236.23 157.375,234.601 162.902,234.601C168.305,234.601 172.759,236.23 176.261,239.483C179.761,242.739 181.51,246.825 181.51,251.735C181.51,256.526 179.761,260.55 176.261,263.803C172.759,267.058 168.305,268.685 162.902,268.685C157.375,268.685 152.861,267.058 149.361,263.803" style="fill:white;fill-rule:nonzero;"/>
        </g>
        <g transform="matrix(4.166667,0,0,4.166667,20634.110208,8953.495816)">
            <path d="M0,-80.512C7.186,-72.711 10.778,-61.996 10.778,-48.363L10.778,11.699L-20.543,11.699L-20.543,-44.125C-20.543,-51.003 -22.324,-56.345 -25.886,-60.154C-29.449,-63.96 -34.24,-65.866 -40.256,-65.866C-46.275,-65.866 -51.065,-63.96 -54.627,-60.154C-58.191,-56.345 -59.97,-51.003 -59.97,-44.125L-59.97,11.699L-91.475,11.699L-91.475,-91.106L-59.97,-91.106L-59.97,-77.473C-56.777,-82.015 -52.48,-85.608 -47.073,-88.251C-41.67,-90.89 -35.589,-92.211 -28.833,-92.211C-16.797,-92.211 -7.185,-88.311 0,-80.512" style="fill:white;fill-rule:nonzero;"/>
        </g>
        <g transform="matrix(4.166667,0,0,4.166667,21032.140208,8434.170816)">
            <path d="M0,136.337L-31.32,93.226L-31.32,136.337L-62.825,136.337L-62.825,0L-31.32,0L-31.32,75.354L-0.184,33.532L38.691,33.532L-4.052,85.118L39.059,136.337L0,136.337Z" style="fill:white;fill-rule:nonzero;"/>
        </g>
        <g transform="matrix(4.166667,0,0,4.166667,17389.084375,8581.339149)">
            <path d="M0,74.477L0,101.208L-16.038,101.208C-27.468,101.208 -36.38,98.414 -42.769,92.82C-49.161,87.229 -52.355,78.103 -52.355,65.444L-52.355,24.518L-64.891,24.518L-64.891,-1.66L-52.355,-1.66L-52.355,-26.731L-20.831,-26.731L-20.831,-1.66L-0.184,-1.66L-0.184,24.518L-20.831,24.518L-20.831,65.812C-20.831,68.886 -20.094,71.098 -18.619,72.449C-17.144,73.803 -14.687,74.477 -11.245,74.477L0,74.477Z" style="fill:white;fill-rule:nonzero;"/>
        </g>
        <g transform="matrix(4.166667,0,0,4.166667,17651.011458,8982.682482)">
            <path d="M0,-94.203C5.53,-97.458 11.675,-99.088 18.435,-99.088L18.435,-65.721L9.771,-65.721C1.904,-65.721 -3.996,-64.03 -7.927,-60.651C-11.862,-57.27 -13.827,-51.341 -13.827,-42.862L-13.827,4.885L-45.351,4.885L-45.351,-97.982L-13.827,-97.982L-13.827,-80.837C-10.139,-86.489 -5.53,-90.945 0,-94.203" style="fill:white;fill-rule:nonzero;"/>
        </g>
        <g transform="matrix(4.166667,0,0,4.166667,17789.650208,8905.487899)">
            <path d="M0,-56.043C3.992,-64.03 9.431,-70.175 16.315,-74.478C23.196,-78.778 30.878,-80.93 39.359,-80.93C46.609,-80.93 52.969,-79.455 58.439,-76.505C63.906,-73.556 68.118,-69.685 71.067,-64.892L71.067,-79.455L102.591,-79.455L102.591,23.412L71.067,23.412L71.067,8.848C67.994,13.641 63.722,17.513 58.254,20.463C52.785,23.412 46.425,24.887 39.174,24.887C30.816,24.887 23.196,22.706 16.315,18.342C9.431,13.981 3.992,7.774 0,-0.277C-3.995,-8.325 -5.992,-17.635 -5.992,-28.206C-5.992,-38.775 -3.995,-48.052 0,-56.043ZM44.63,-55.114C32.21,-55.114 22.141,-45.045 22.141,-32.625C22.141,-27.08 24.157,-22.013 27.484,-18.092L44.63,2.101L61.776,-18.092C65.102,-22.013 67.118,-27.081 67.118,-32.626C67.119,-45.045 57.05,-55.114 44.63,-55.114Z" style="fill:white;"/>
        </g>
        <g transform="matrix(4.166667,0,0,4.166667,18693.722292,8954.258732)">
            <path d="M0,-80.56C7.19,-72.754 10.785,-62.033 10.785,-48.391L10.785,11.707L-20.555,11.707L-20.555,-44.151C-20.555,-51.033 -22.338,-56.378 -25.901,-60.19C-29.466,-63.998 -34.26,-65.904 -40.281,-65.904C-46.303,-65.904 -51.096,-63.998 -54.66,-60.19C-58.226,-56.378 -60.006,-51.033 -60.006,-44.151L-60.006,11.707L-91.53,11.707L-91.53,-91.16L-60.006,-91.16L-60.006,-77.519C-56.812,-82.064 -52.511,-85.659 -47.101,-88.303C-41.695,-90.944 -35.611,-92.267 -28.85,-92.267C-16.807,-92.267 -7.189,-88.363 0,-80.56" style="fill:white;fill-rule:nonzero;"/>
        </g>
        <g transform="matrix(4.166667,0,0,4.166667,18904.570625,8587.483316)">
            <path d="M0,96.599C-7.005,93.529 -12.535,89.317 -16.591,83.971C-20.647,78.625 -22.922,72.634 -23.412,65.997L7.743,65.997C8.112,69.563 9.771,72.449 12.721,74.662C15.671,76.874 19.293,77.98 23.597,77.98C27.529,77.98 30.57,77.214 32.722,75.676C34.872,74.14 35.948,72.144 35.948,69.684C35.948,66.734 34.41,64.554 31.34,63.14C28.266,61.728 23.289,60.161 16.407,58.439C9.033,56.719 2.886,54.907 -2.028,53C-6.945,51.096 -11.185,48.086 -14.747,43.967C-18.314,39.851 -20.094,34.289 -20.094,27.284C-20.094,21.384 -18.467,16.009 -15.209,11.153C-11.953,6.299 -7.161,2.46 -0.83,-0.369C5.498,-3.194 13.026,-4.609 21.753,-4.609C34.658,-4.609 44.826,-1.412 52.263,4.977C59.698,11.369 63.97,19.849 65.076,30.418L35.948,30.418C35.456,26.854 33.888,24.029 31.248,21.937C28.603,19.849 25.132,18.803 20.831,18.803C17.145,18.803 14.316,19.512 12.351,20.923C10.384,22.338 9.402,24.273 9.402,26.731C9.402,29.68 10.969,31.892 14.103,33.367C17.237,34.842 22.122,36.317 28.759,37.791C36.378,39.759 42.585,41.695 47.379,43.599C52.171,45.506 56.379,48.576 60.006,52.816C63.63,57.056 65.504,62.742 65.628,69.868C65.628,75.892 63.938,81.269 60.558,85.999C57.177,90.732 52.323,94.45 45.995,97.152C39.664,99.854 32.322,101.208 23.966,101.208C14.993,101.208 7.006,99.672 0,96.599" style="fill:white;fill-rule:nonzero;"/>
        </g>
        <g transform="matrix(4.166667,0,0,4.166667,16754.765625,6641.061232)">
            <path d="M632.461,566.874L600.937,566.874L600.937,464.007L632.461,464.007L632.461,566.874ZM603.243,448.43C599.739,445.175 597.989,441.148 597.989,436.354C597.989,431.441 599.739,427.353 603.243,424.095C606.745,420.84 611.262,419.21 616.792,419.21C622.198,419.21 626.655,420.84 630.157,424.095C633.661,427.353 635.411,431.441 635.411,436.354C635.411,441.148 633.661,445.175 630.157,448.43C626.655,451.687 622.198,453.315 616.792,453.315C611.262,453.315 606.745,451.687 603.243,448.43" style="fill:white;fill-rule:nonzero;"/>
        </g>
        <g transform="matrix(4.166667,0,0,4.166667,19724.157292,8581.339149)">
            <path d="M0,74.477L0,101.208L-16.039,101.208C-27.468,101.208 -36.38,98.414 -42.769,92.82C-49.161,87.229 -52.355,78.103 -52.355,65.444L-52.355,24.518L-64.891,24.518L-64.891,-1.66L-52.355,-1.66L-52.355,-26.731L-20.831,-26.731L-20.831,-1.66L-0.184,-1.66L-0.184,24.518L-20.831,24.518L-20.831,65.812C-20.831,68.886 -20.094,71.098 -18.619,72.449C-17.145,73.803 -14.687,74.477 -11.245,74.477L0,74.477Z" style="fill:white;fill-rule:nonzero;"/>
        </g>
        <g transform="matrix(4.166667,0,0,4.166667,17975.607708,8727.787899)">
            <path d="M0,18.497C-5.108,18.497 -9.249,14.357 -9.249,9.248C-9.249,4.14 -5.108,0 0,0C5.108,0 9.249,4.14 9.249,9.248C9.249,14.357 5.108,18.497 0,18.497" style="fill:white;fill-rule:nonzero;"/>
        </g>
    </g>
</svg>
